HIERARCHY
ROOT Root
{
  OFFSET -7.96097 11.9045 7.82465
  CHANNELS 6 Xposition Yposition Zposition Zrotation Xrotation Yrotation
  JOINT Spine
  {
    OFFSET 5.3114 0 0
    CHANNELS 3 Zrotation Xrotation Yrotation
    JOINT Spine1
    {
      OFFSET 2.79004 0 0
      CHANNELS 3 Zrotation Xrotation Yrotation
      JOINT Neck
      {
        OFFSET 1.43377 0 0
        CHANNELS 3 Zrotation Xrotation Yrotation
        JOINT Head
        {
          OFFSET 1.86043 0 0
          CHANNELS 3 Zrotation Xrotation Yrotation
          End Site
          {
            OFFSET 0 0 0
          }
        }
      }
      JOINT LeftArm
      {
        OFFSET 0.0387506 0 2.55754
        CHANNELS 3 Zrotation Xrotation Yrotation
        JOINT LeftForeArm
        {
          OFFSET 4.24845 0 0
          CHANNELS 3 Zrotation Xrotation Yrotation
          JOINT LeftHand
          {
            OFFSET 4.01008 0 0
            CHANNELS 3 Zrotation Xrotation Yrotation
            End Site
            {
              OFFSET 0 0 0
            }
          }
        }
      }
      JOINT RightArm
      {
        OFFSET 0.0387506 0 -2.55754
        CHANNELS 3 Zrotation Xrotation Yrotation
        JOINT RightForeArm
        {
          OFFSET -4.24845 0 0
          CHANNELS 3 Zrotation Xrotation Yrotation
          JOINT RightHand
          {
            OFFSET -4.01009 0 0
            CHANNELS 3 Zrotation Xrotation Yrotation
            End Site
            {
              OFFSET 0 0 0
            }
          }
        }
      }
    }
  }
  JOINT LeftUpLeg
  {
    OFFSET -1.23318 0 2.05692
    CHANNELS 3 Zrotation Xrotation Yrotation
    JOINT LeftLeg
    {
      OFFSET 5.46397 0 0
      CHANNELS 3 Zrotation Xrotation Yrotation
      JOINT LeftFoot
      {
        OFFSET 4.68898 0 0
        CHANNELS 3 Zrotation Xrotation Yrotation
        End Site
        {
          OFFSET 0 0 0
        }
      }
    }
  }
  JOINT RightUpLeg
  {
    OFFSET -1.24454 0 -2.05007
    CHANNELS 3 Zrotation Xrotation Yrotation
    JOINT RightLeg
    {
      OFFSET -5.46397 0 0
      CHANNELS 3 Zrotation Xrotation Yrotation
      JOINT RightFoot
      {
        OFFSET -4.68901 0 0
        CHANNELS 3 Zrotation Xrotation Yrotation
        End Site
        {
          OFFSET 0 0 0
        }
      }
    }
  }
}
MOTION
Frames:	19
Frame Time:	0.0416667
-7.96097 11.9045 7.82465 -102.837 9.55022 179.632 -11.0798 1.50932 -2.91616 7.22888 0.519746 2.95968 -1.98332 -0.578066 -5.24517 -7.82815 -0.481036 3.88933 7.57075 -39.5419 -164.539 59.4261 9.88497 33.2318 -2.65193 -18.2224 174.029 -162.314 -35.9214 -160.67 50.3089 6.03887 28.8168 4.54806 29.4324 173.26 -21.7128 0.584811 176.214 -38.0075 0.787686 -0.707594 28.8651 -0.45138 -178.038 141.447 -9.29166 -179.212 -28.6611 0.445384 -0.706678 -3.12131 -0.597283 -178.881 
-7.75235 11.9201 7.91616 -102.627 6.39837 178.871 -10.779 2.16252 -3.33588 7.2408 0.690229 2.85541 -1.6805 -1.95601 -6.34957 -8.07949 -3.04895 5.52315 10.4033 -40.6184 -163.608 63.7519 11.9762 35.144 -2.47371 -17.0712 174.083 -162.537 -37.1847 -160.346 53.2602 7.19707 30.2974 4.36012 28.4111 173.35 -20.4577 -0.842476 176.74 -37.4359 0.799379 -0.727449 28.645 0.575299 -178.541 141.33 -9.24529 -178.588 -26.5535 0.440729 -0.737393 -1.64353 -0.00640765 -178.965 
-7.55442 11.919 8.00832 -102.537 3.21678 178.121 -10.453 2.99776 -3.68283 7.52441 0.914252 2.65452 -1.91874 -3.34003 -7.32836 -7.65817 -5.67491 7.21728 12.8129 -42.0636 -162.377 67.668 14 36.7633 -2.5968 -17.8872 174.055 -163.208 -38.6477 -159.563 56.1892 8.42906 31.7204 3.9398 26.0534 173.543 -19.5925 -2.13059 177.421 -37.2244 0.819361 -0.744193 28.336 1.92862 -179.173 141.409 -8.88166 -177.94 -25.1758 0.434065 -0.746064 -0.427012 2.26829 -179.147 
-7.36195 11.9186 8.10526 -102.471 0.0732866 177.364 -10.2671 3.48086 -3.91475 7.71105 1.06701 2.89469 -1.53547 -4.61076 -8.36777 -7.4601 -7.97226 8.76544 15.0357 -43.1773 -161.918 71.5191 16.1053 38.2292 -2.56395 -17.6613 174.059 -163.096 -40.3559 -157.451 59.3101 9.83084 33.1795 3.4894 23.4159 173.731 -18.8191 -3.69477 178.129 -37.0831 0.829585 -0.756133 28.1757 2.55425 -179.499 141.576 -7.67075 -177.301 -25.3099 0.444244 -0.749856 1.54646 3.76408 -179.385 
-7.16463 11.9191 8.19564 -101.934 -3.27338 176.699 -9.49844 3.58144 -3.98959 7.61806 1.09727 2.87425 -0.435374 -5.79503 -8.56789 -8.26008 -10.2344 9.33632 17.1793 -44.2197 -161.49 74.937 18.055 39.4237 -2.53174 -17.4423 174.063 -162.681 -42.1331 -154.681 62.6793 11.4411 34.6847 2.86698 19.5902 173.96 -17.5378 -5.48149 178.801 -36.9009 0.839381 -0.765753 27.7785 3.42993 -179.91 142.434 -5.77203 -176.595 -26.9346 0.475183 -0.741988 3.94206 4.19171 -179.592 
-6.95515 11.9228 8.29301 -100.907 -6.19403 176.165 -8.26751 3.84187 -3.80502 7.78987 1.18957 2.86157 -0.719018 -6.74509 -9.30995 -7.38261 -11.9747 10.8736 18.6294 -45.1062 -161.361 78.008 19.8647 40.4005 -2.53116 -17.445 174.066 -162.767 -43.3289 -151.634 65.8869 13.065 36.0402 2.22748 15.4591 174.152 -15.6695 -6.52261 179.739 -37.0125 0.860474 -0.771224 27.4908 4.74628 179.522 144.002 -3.45879 -176.331 -29.0155 0.510256 -0.727363 5.66771 4.4973 -179.746 
-6.74737 11.9098 8.40666 -100.205 -8.29005 175.977 -7.78391 4.38779 -3.70296 7.53781 1.33693 2.71009 0.0114599 -7.61614 -9.49236 -6.80412 -13.4968 11.7487 21.2426 -45.8178 -160.749 81.1477 21.7605 41.3018 -2.41627 -16.6982 174.1 -162.997 -43.8952 -149.397 68.9005 14.6626 37.245 1.47897 10.4065 174.32 -13.9442 -7.1736 -179.648 -37.3217 0.867904 -0.755247 28.1321 4.67418 179.47 145.189 -1.70338 -176.479 -30.769 0.535193 -0.712594 4.90953 6.07719 -179.873 
-6.53884 11.8953 8.53521 -99.8809 -9.79292 176.081 -7.6787 4.79187 -3.60944 7.42051 1.43959 2.50799 0.416283 -8.23368 -9.90804 -6.56372 -14.5581 12.7727 23.2015 -46.248 -160.424 84.1888 23.6313 42.076 -2.29167 -15.8819 174.135 -164.386 -44.2181 -147.918 71.6567 16.1824 38.2793 0.639287 4.5392 174.429 -13.088 -7.2897 -179.245 -38.2489 0.884712 -0.73443 28.4535 4.21512 179.601 146.097 -2.00541 -176.971 -31.7788 0.548119 -0.699559 3.04147 8.94344 179.981 
-6.32936 11.8832 8.67019 -99.7857 -10.0642 176.191 -7.98319 5.64512 -2.9274 7.63817 1.67178 2.11413 0.465528 -8.65877 -10.1378 -6.59967 -15.3695 13.3007 24.4797 -47.0052 -160.058 86.8042 25.2599 42.6593 -2.17016 -15.0797 174.167 -166.365 -44.6143 -147.185 74.0586 17.5476 39.1256 -0.501136 -3.56057 174.439 -13.2532 -5.58791 -178.265 -40.74 0.928845 -0.666919 27.479 4.92497 179.354 146.353 -2.55216 -177.789 -33.1764 0.56461 -0.679836 0.59128 10.0684 -179.773 
-6.14155 11.8757 8.80071 -100.058 -10.2558 176.582 -8.39394 6.12948 -2.36715 7.59849 1.79355 1.75202 0.98006 -8.82715 -9.98549 -7.494 -15.7804 13.2037 25.0167 -48.0505 -159.766 89.1725 26.7445 43.1204 -2.08981 -14.5456 174.188 -168.283 -45.0587 -147.214 76.5603 19.0054 39.9528 -2.21969 -15.4031 174.155 -15.5187 -3.47534 -177.314 -45.6436 0.999324 -0.541742 24.4764 6.18055 179.131 145.941 -3.35984 -178.295 -34.7879 0.583088 -0.661237 -1.7127 10.8476 -179.442 
-5.9641 11.8506 8.90803 -100.085 -10.1116 177.121 -8.4262 6.19675 -1.39828 7.32594 1.80638 1.38767 1.16418 -8.59678 -9.70528 -7.87198 -15.3543 12.2726 24.4393 -49.4126 -160.042 91.4362 28.1674 43.497 -1.89946 -13.2705 174.234 -169.927 -45.2881 -147.895 79.4174 20.7107 40.819 -4.93714 -31.4745 173.064 -19.5431 -1.14293 -176.041 -53.485 1.0733 -0.344922 18.5442 7.30404 179.471 145.669 -3.36866 -178.52 -36.6334 0.604334 -0.64333 -3.82448 11.1095 -179.041 
-5.80309 11.8033 8.98715 -100.83 -9.37744 177.515 -9.1285 5.94521 -0.0442541 7.23714 1.74888 1.16444 1.3013 -8.06146 -9.05111 -8.58282 -14.4478 10.8585 22.0489 -50.9064 -161.192 93.9044 29.7178 43.8374 -1.74918 -12.2539 174.267 -171.127 -45.2315 -148.855 82.9733 22.8802 41.7789 -10.238 -51.666 169.488 -25.3024 0.902967 -174.435 -61.712 1.12514 -0.132498 12.0148 6.81642 -179.727 144.403 -2.79028 -178.459 -38.8023 0.630128 -0.618026 -5.99495 10.0998 -178.633 
-5.64062 11.7486 9.03442 -101.151 -7.16938 178.339 -9.2929 5.78952 1.32167 7.41436 1.74331 1.22331 0.687819 -7.10454 -8.55673 -8.63847 -12.6959 9.52259 17.6744 -52.4046 -163.24 96.6642 31.4434 44.1292 -1.636 -11.4829 174.29 -172.129 -45.1184 -150.1 86.211 24.889 42.538 -18.8759 -66.5209 162.014 -29.5874 3.36954 -172.739 -67.2007 1.19703 0.0114185 12.7876 5.03196 -179.643 143.331 -2.44995 -178.305 -41.0359 0.657799 -0.590074 -8.12909 7.83664 -178.417 
-5.47353 11.7088 9.05911 -101.169 -2.86926 179.996 -8.73877 5.86536 2.18222 7.65406 1.79193 1.31513 -0.73463 -5.42102 -7.48452 -7.85665 -9.60098 7.15807 12.3275 -53.2957 -164.763 99.2675 33.0561 44.3141 -1.1929 -8.42601 174.367 -173.572 -45.7547 -152.357 88.1848 26.1244 42.9346 -27.4288 -73.0336 153.971 -31.6201 6.62091 -171.11 -68.0497 1.24153 0.0377964 16.6315 1.75889 -179.458 142.42 -3.7149 -178.271 -42.8251 0.687742 -0.569227 -9.74405 5.61925 -178.487 
-5.30115 11.694 9.0442 -101.081 2.14443 -178.34 -8.1199 5.06891 3.41315 7.67157 1.58173 1.18726 -1.51428 -2.92261 -5.80244 -6.16197 -4.81121 3.90771 7.70377 -53.3498 -164.026 101.555 34.4564 44.4069 -0.710645 -5.04325 174.423 -173.554 -46.7235 -155.914 90.0476 27.2942 43.2711 -35.3967 -76.3617 146.281 -31.869 8.36535 -169.897 -64.8916 1.21049 -0.0397992 21.9597 -2.31511 -178.547 142.216 -4.69794 -178.053 -43.6429 0.720218 -0.560182 -11.5018 3.02858 -178.811 
-5.13288 11.7099 8.98763 -101.302 7.70289 -176.22 -7.8533 3.51975 4.56991 7.26488 1.15496 1.09177 -1.07105 -0.0347571 -3.7364 -2.99582 0.814567 -0.813192 3.13916 -51.8816 -160.724 103.042 35.3565 44.4317 -0.25825 -1.83694 174.451 -172.389 -47.7097 -159.277 90.5596 27.6161 43.3579 -38.636 -77.3146 143.126 -29.9057 8.37757 -170.037 -58.3255 1.08128 -0.195388 29.2148 -6.23776 -176.553 142.127 -5.67774 -177.104 -43.8173 0.760321 -0.565468 -13.4561 -0.232963 -179.518 
-4.98707 11.7311 8.90434 -101.844 14.0733 -173.474 -7.24023 1.78986 5.21205 6.78241 0.686036 1.41804 -0.162144 3.13082 -1.97169 0.656088 6.80151 -6.5197 -3.62357 -47.1537 -155.286 101.554 34.4575 44.4324 0.25542 1.81674 174.45 -170.564 -47.9485 -161.63 90.4243 27.5311 43.3356 -39.3603 -77.5047 142.42 -26.284 7.70241 -171.201 -50.5769 0.831677 -0.363448 35.306 -11.6277 -172.65 141.227 -8.15172 -176.392 -44.2344 0.821637 -0.571347 -14.7601 -1.78532 179.893 
-4.87806 11.7195 8.80244 -101.86 20.0405 -170.98 -5.59816 0.00518005 5.38077 6.90013 0.182631 1.76687 0.761446 6.03499 -0.463816 3.89186 11.9482 -12.1754 -14.5246 -41.5569 -146.384 92.3568 28.6513 43.733 0.562834 3.99816 174.435 -169.179 -46.6295 -163.559 90.279 27.4398 43.3116 -39.6407 -77.5752 142.151 -22.5241 6.65156 -172.389 -45.1955 0.71351 -0.470985 34.2309 -14.3115 -171.294 140.41 -11.149 -176.126 -45.4118 0.899525 -0.565851 -16.1378 -1.43771 179.725 
-4.7977 11.6867 8.67904 -100.906 23.1854 -169.801 -3.46348 -3.50395 5.61898 6.8551 -0.818128 2.13167 2.08087 8.34363 0.202636 7.07368 15.8937 -16.3398 -27.432 -39.6818 -136.503 70.0758 15.1609 37.5797 0.766823 5.43957 174.418 -167.516 -44.4125 -164.87 90.5445 27.6066 43.3555 -43.5525 -78.4712 138.32 -19.5568 6.18036 -173.356 -43.4601 0.763517 -0.499511 31.9736 -12.896 -172.641 140.427 -12.308 -175.329 -47.1129 0.952501 -0.541491 -17.6062 -0.153549 179.978 
